<svg width="65" height="39" viewBox="0 0 65 39" fill="none" xmlns="http://www.w3.org/2000/svg">
<rect x="0.5" y="0.5" width="64" height="38" rx="5.5" fill="#1B48DA"/>
<rect x="0.5" y="0.5" width="64" height="38" rx="5.5" stroke="#1B48DA"/>
<path d="M15.12 25V14.92H16.583V23.621H21.147V25H15.12ZM25.6185 25.21C24.8625 25.21 24.2068 25.0397 23.6515 24.699C23.0961 24.3583 22.6668 23.8893 22.3635 23.292C22.0648 22.69 21.9155 21.997 21.9155 21.213C21.9155 20.4243 22.0695 19.7313 22.3775 19.134C22.6855 18.532 23.1171 18.0653 23.6725 17.734C24.2278 17.398 24.8765 17.23 25.6185 17.23C26.3745 17.23 27.0301 17.4003 27.5855 17.741C28.1408 18.0817 28.5701 18.5507 28.8735 19.148C29.1768 19.7453 29.3285 20.4337 29.3285 21.213C29.3285 22.0017 29.1745 22.697 28.8665 23.299C28.5631 23.8963 28.1338 24.3653 27.5785 24.706C27.0231 25.042 26.3698 25.21 25.6185 25.21ZM25.6185 23.831C26.3418 23.831 26.8808 23.5883 27.2355 23.103C27.5948 22.613 27.7745 21.983 27.7745 21.213C27.7745 20.4243 27.5925 19.7943 27.2285 19.323C26.8691 18.847 26.3325 18.609 25.6185 18.609C25.1285 18.609 24.7248 18.721 24.4075 18.945C24.0901 19.1643 23.8545 19.47 23.7005 19.862C23.5465 20.2493 23.4695 20.6997 23.4695 21.213C23.4695 22.0063 23.6515 22.641 24.0155 23.117C24.3795 23.593 24.9138 23.831 25.6185 23.831ZM33.9817 28.57C33.5757 28.57 33.1814 28.507 32.7987 28.381C32.4207 28.255 32.0754 28.0683 31.7627 27.821C31.4501 27.5783 31.1911 27.2773 30.9857 26.918L32.3367 26.232C32.5001 26.554 32.7334 26.7897 33.0367 26.939C33.3401 27.0883 33.6597 27.163 33.9957 27.163C34.4111 27.163 34.7657 27.0883 35.0597 26.939C35.3537 26.7943 35.5754 26.575 35.7247 26.281C35.8787 25.987 35.9534 25.623 35.9487 25.189V23.075H36.1237V17.44H37.4187V25.203C37.4187 25.4037 37.4117 25.595 37.3977 25.777C37.3837 25.959 37.3581 26.141 37.3207 26.323C37.2134 26.8317 37.0081 27.2517 36.7047 27.583C36.4061 27.9143 36.0234 28.1617 35.5567 28.325C35.0947 28.4883 34.5697 28.57 33.9817 28.57ZM33.8697 25.21C33.1651 25.21 32.5561 25.035 32.0427 24.685C31.5341 24.335 31.1397 23.859 30.8597 23.257C30.5844 22.6503 30.4467 21.969 30.4467 21.213C30.4467 20.4523 30.5867 19.7733 30.8667 19.176C31.1467 18.574 31.5434 18.1003 32.0567 17.755C32.5747 17.405 33.1884 17.23 33.8977 17.23C34.6117 17.23 35.2114 17.405 35.6967 17.755C36.1867 18.1003 36.5554 18.574 36.8027 19.176C37.0547 19.778 37.1807 20.457 37.1807 21.213C37.1807 21.969 37.0547 22.648 36.8027 23.25C36.5507 23.852 36.1797 24.3303 35.6897 24.685C35.1997 25.035 34.5931 25.21 33.8697 25.21ZM34.0727 23.887C34.5534 23.887 34.9454 23.7727 35.2487 23.544C35.5521 23.3153 35.7737 23.0003 35.9137 22.599C36.0537 22.1977 36.1237 21.7357 36.1237 21.213C36.1237 20.6903 36.0514 20.2283 35.9067 19.827C35.7667 19.4257 35.5474 19.113 35.2487 18.889C34.9547 18.665 34.5791 18.553 34.1217 18.553C33.6364 18.553 33.2374 18.672 32.9247 18.91C32.6121 19.148 32.3787 19.4677 32.2247 19.869C32.0754 20.2703 32.0007 20.7183 32.0007 21.213C32.0007 21.7123 32.0754 22.165 32.2247 22.571C32.3787 22.9723 32.6074 23.292 32.9107 23.53C33.2187 23.768 33.6061 23.887 34.0727 23.887ZM39.5243 16.201V14.78H40.9873V16.201H39.5243ZM39.5243 25V17.44H40.9873V25H39.5243ZM48.3954 25V21.283C48.3954 20.989 48.3697 20.688 48.3184 20.38C48.2717 20.0673 48.1784 19.778 48.0384 19.512C47.903 19.246 47.7094 19.0313 47.4574 18.868C47.21 18.7047 46.8857 18.623 46.4844 18.623C46.223 18.623 45.9757 18.6673 45.7424 18.756C45.509 18.84 45.3037 18.9777 45.1264 19.169C44.9537 19.3603 44.816 19.6123 44.7134 19.925C44.6154 20.2377 44.5664 20.618 44.5664 21.066L43.6564 20.723C43.6564 20.037 43.7847 19.4327 44.0414 18.91C44.298 18.3827 44.6667 17.972 45.1474 17.678C45.628 17.384 46.209 17.237 46.8904 17.237C47.413 17.237 47.8517 17.321 48.2064 17.489C48.561 17.657 48.848 17.8787 49.0674 18.154C49.2914 18.4247 49.4617 18.721 49.5784 19.043C49.695 19.365 49.7744 19.68 49.8164 19.988C49.8584 20.296 49.8794 20.5667 49.8794 20.8V25H48.3954ZM43.0824 25V17.44H44.3914V19.624H44.5664V25H43.0824Z" fill="white"/>
</svg>
