<svg width="411" height="42" viewBox="0 0 411 42" fill="none" xmlns="http://www.w3.org/2000/svg">
<rect x="0.5" y="0.5" width="410" height="41" rx="5.5" fill="#1B48DA"/>
<rect x="0.5" y="0.5" width="410" height="41" rx="5.5" stroke="#1B48DA"/>
<path d="M174.12 27V15.48H178.88C178.992 15.48 179.136 15.4853 179.312 15.496C179.488 15.5013 179.651 15.5173 179.8 15.544C180.467 15.6453 181.016 15.8667 181.448 16.208C181.885 16.5493 182.208 16.9813 182.416 17.504C182.629 18.0213 182.736 18.5973 182.736 19.232C182.736 20.1707 182.499 20.9787 182.024 21.656C181.549 22.328 180.821 22.744 179.84 22.904L179.016 22.976H176.048V27H174.12ZM180.736 27L178.464 22.312L180.424 21.88L182.92 27H180.736ZM176.048 21.176H178.8C178.907 21.176 179.027 21.1707 179.16 21.16C179.293 21.1493 179.416 21.128 179.528 21.096C179.848 21.016 180.099 20.8747 180.28 20.672C180.467 20.4693 180.597 20.24 180.672 19.984C180.752 19.728 180.792 19.4773 180.792 19.232C180.792 18.9867 180.752 18.736 180.672 18.48C180.597 18.2187 180.467 17.9867 180.28 17.784C180.099 17.5813 179.848 17.44 179.528 17.36C179.416 17.328 179.293 17.3093 179.16 17.304C179.027 17.2933 178.907 17.288 178.8 17.288H176.048V21.176ZM188.611 27.24C187.736 27.24 186.968 27.0507 186.307 26.672C185.645 26.2933 185.128 25.768 184.755 25.096C184.387 24.424 184.203 23.6507 184.203 22.776C184.203 21.832 184.384 21.0133 184.747 20.32C185.109 19.6213 185.613 19.08 186.259 18.696C186.904 18.312 187.651 18.12 188.499 18.12C189.395 18.12 190.155 18.3307 190.779 18.752C191.408 19.168 191.875 19.7573 192.179 20.52C192.483 21.2827 192.597 22.1813 192.523 23.216H190.611V22.512C190.605 21.5733 190.44 20.888 190.115 20.456C189.789 20.024 189.277 19.808 188.579 19.808C187.789 19.808 187.203 20.0533 186.819 20.544C186.435 21.0293 186.243 21.7413 186.243 22.68C186.243 23.5547 186.435 24.232 186.819 24.712C187.203 25.192 187.763 25.432 188.499 25.432C188.973 25.432 189.381 25.328 189.723 25.12C190.069 24.9067 190.336 24.6 190.523 24.2L192.427 24.776C192.096 25.5547 191.584 26.16 190.891 26.592C190.203 27.024 189.443 27.24 188.611 27.24ZM185.635 23.216V21.76H191.579V23.216H185.635ZM197.94 31.08C197.46 31.08 196.998 31.0053 196.556 30.856C196.118 30.7067 195.724 30.4907 195.372 30.208C195.02 29.9307 194.732 29.5947 194.508 29.2L196.284 28.32C196.449 28.6347 196.681 28.8667 196.98 29.016C197.284 29.1707 197.606 29.248 197.948 29.248C198.348 29.248 198.705 29.176 199.02 29.032C199.334 28.8933 199.577 28.6853 199.748 28.408C199.924 28.136 200.006 27.7947 199.996 27.384V24.928H200.236V18.36H201.924V27.416C201.924 27.6347 201.913 27.8427 201.892 28.04C201.876 28.2427 201.846 28.44 201.804 28.632C201.676 29.192 201.43 29.6507 201.068 30.008C200.705 30.3707 200.254 30.64 199.716 30.816C199.182 30.992 198.59 31.08 197.94 31.08ZM197.772 27.24C196.977 27.24 196.284 27.04 195.692 26.64C195.1 26.24 194.641 25.696 194.316 25.008C193.99 24.32 193.828 23.544 193.828 22.68C193.828 21.8053 193.99 21.0267 194.316 20.344C194.646 19.656 195.113 19.1147 195.716 18.72C196.318 18.32 197.028 18.12 197.844 18.12C198.665 18.12 199.353 18.32 199.908 18.72C200.468 19.1147 200.892 19.656 201.18 20.344C201.468 21.032 201.612 21.8107 201.612 22.68C201.612 23.5387 201.468 24.3147 201.18 25.008C200.892 25.696 200.462 26.24 199.892 26.64C199.321 27.04 198.614 27.24 197.772 27.24ZM198.068 25.512C198.585 25.512 199.001 25.3947 199.316 25.16C199.636 24.92 199.868 24.5867 200.012 24.16C200.161 23.7333 200.236 23.24 200.236 22.68C200.236 22.1147 200.161 21.6213 200.012 21.2C199.868 20.7733 199.641 20.4427 199.332 20.208C199.022 19.968 198.622 19.848 198.132 19.848C197.614 19.848 197.188 19.976 196.852 20.232C196.516 20.4827 196.268 20.824 196.108 21.256C195.948 21.6827 195.868 22.1573 195.868 22.68C195.868 23.208 195.945 23.688 196.1 24.12C196.26 24.5467 196.502 24.8853 196.828 25.136C197.153 25.3867 197.566 25.512 198.068 25.512ZM204.327 17.048V15.28H206.255V17.048H204.327ZM204.327 27V18.36H206.255V27H204.327ZM211.987 27.24C210.921 27.24 210.054 27 209.387 26.52C208.721 26.04 208.315 25.3653 208.171 24.496L210.139 24.192C210.241 24.6187 210.465 24.9547 210.811 25.2C211.158 25.4453 211.595 25.568 212.123 25.568C212.587 25.568 212.945 25.4773 213.195 25.296C213.451 25.1093 213.579 24.856 213.579 24.536C213.579 24.3387 213.531 24.1813 213.435 24.064C213.345 23.9413 213.142 23.824 212.827 23.712C212.513 23.6 212.03 23.4587 211.379 23.288C210.654 23.096 210.078 22.8907 209.651 22.672C209.225 22.448 208.918 22.184 208.731 21.88C208.545 21.576 208.451 21.208 208.451 20.776C208.451 20.2373 208.593 19.768 208.875 19.368C209.158 18.968 209.553 18.6613 210.059 18.448C210.566 18.2293 211.163 18.12 211.851 18.12C212.523 18.12 213.118 18.224 213.635 18.432C214.158 18.64 214.579 18.936 214.899 19.32C215.219 19.704 215.417 20.1547 215.491 20.672L213.523 21.024C213.475 20.656 213.307 20.3653 213.019 20.152C212.737 19.9387 212.358 19.8187 211.883 19.792C211.43 19.7653 211.065 19.8347 210.787 20C210.51 20.16 210.371 20.3867 210.371 20.68C210.371 20.8453 210.427 20.9867 210.539 21.104C210.651 21.2213 210.875 21.3387 211.211 21.456C211.553 21.5733 212.059 21.7173 212.731 21.888C213.419 22.064 213.969 22.2667 214.379 22.496C214.795 22.72 215.094 22.9893 215.275 23.304C215.462 23.6187 215.555 24 215.555 24.448C215.555 25.3173 215.238 26 214.603 26.496C213.974 26.992 213.102 27.24 211.987 27.24ZM222.372 27C221.801 27.1067 221.241 27.152 220.692 27.136C220.148 27.1253 219.66 27.0267 219.228 26.84C218.796 26.648 218.468 26.3467 218.243 25.936C218.046 25.5627 217.942 25.1813 217.932 24.792C217.921 24.4027 217.916 23.9627 217.916 23.472V15.96H219.836V23.36C219.836 23.7067 219.838 24.0107 219.844 24.272C219.854 24.5333 219.91 24.7467 220.012 24.912C220.204 25.232 220.51 25.4107 220.932 25.448C221.353 25.4853 221.833 25.464 222.372 25.384V27ZM216.348 19.872V18.36H222.372V19.872H216.348ZM227.72 27.24C226.845 27.24 226.077 27.0507 225.416 26.672C224.755 26.2933 224.237 25.768 223.864 25.096C223.496 24.424 223.312 23.6507 223.312 22.776C223.312 21.832 223.493 21.0133 223.856 20.32C224.219 19.6213 224.723 19.08 225.368 18.696C226.013 18.312 226.76 18.12 227.608 18.12C228.504 18.12 229.264 18.3307 229.888 18.752C230.517 19.168 230.984 19.7573 231.288 20.52C231.592 21.2827 231.707 22.1813 231.632 23.216H229.72V22.512C229.715 21.5733 229.549 20.888 229.224 20.456C228.899 20.024 228.387 19.808 227.688 19.808C226.899 19.808 226.312 20.0533 225.928 20.544C225.544 21.0293 225.352 21.7413 225.352 22.68C225.352 23.5547 225.544 24.232 225.928 24.712C226.312 25.192 226.872 25.432 227.608 25.432C228.083 25.432 228.491 25.328 228.832 25.12C229.179 24.9067 229.445 24.6 229.632 24.2L231.536 24.776C231.205 25.5547 230.693 26.16 230 26.592C229.312 27.024 228.552 27.24 227.72 27.24ZM224.744 23.216V21.76H230.688V23.216H224.744ZM233.417 27V18.36H235.121V20.464L234.913 20.192C235.02 19.904 235.161 19.6427 235.337 19.408C235.518 19.168 235.734 18.9707 235.985 18.816C236.198 18.672 236.433 18.56 236.689 18.48C236.95 18.3947 237.217 18.344 237.489 18.328C237.761 18.3067 238.025 18.3173 238.281 18.36V20.16C238.025 20.0853 237.729 20.0613 237.393 20.088C237.062 20.1147 236.764 20.208 236.497 20.368C236.23 20.512 236.012 20.696 235.841 20.92C235.676 21.144 235.553 21.4 235.473 21.688C235.393 21.9707 235.353 22.2773 235.353 22.608V27H233.417Z" fill="white"/>
</svg>
